<svg width="500" height="500" viewBox="0 0 500 500" fill="none" xmlns="http://www.w3.org/2000/svg">
<mask id="path-1-inside-1_2_65" fill="white">
<path d="M500 250C500 388.071 388.071 500 250 500C111.929 500 0 388.071 0 250C0 111.929 111.929 0 250 0C388.071 0 500 111.929 500 250Z"/>
</mask>
<g clip-path="url(#paint0_angular_2_65_clip_path)" data-figma-skip-parse="true" mask="url(#path-1-inside-1_2_65)"><g transform="matrix(0 0.25 -0.25 0 250 250)"><foreignObject x="-1600" y="-1600" width="3200" height="3200"><div xmlns="http://www.w3.org/1999/xhtml" style="background:conic-gradient(from 90deg,rgba(29, 58, 90, 0) 0deg,rgba(60, 120, 172, 1) 360deg);height:100%;width:100%;opacity:1"></div></foreignObject></g></g><path d="M500 250H350C350 305.228 305.228 350 250 350V500V650C470.914 650 650 470.914 650 250H500ZM250 500V350C194.772 350 150 305.228 150 250H0H-150C-150 470.914 29.0861 650 250 650V500ZM0 250H150C150 194.772 194.772 150 250 150V0V-150C29.0861 -150 -150 29.0861 -150 250H0ZM250 0V150C305.228 150 350 194.772 350 250H500H650C650 29.0861 470.914 -150 250 -150V0Z" data-figma-gradient-fill="{&#34;type&#34;:&#34;GRADIENT_ANGULAR&#34;,&#34;stops&#34;:[{&#34;color&#34;:{&#34;r&#34;:0.11372549086809158,&#34;g&#34;:0.22745098173618317,&#34;b&#34;:0.35294118523597717,&#34;a&#34;:0.0},&#34;position&#34;:0.0},{&#34;color&#34;:{&#34;r&#34;:0.23529411852359772,&#34;g&#34;:0.47058823704719543,&#34;b&#34;:0.67450982332229614,&#34;a&#34;:1.0},&#34;position&#34;:1.0}],&#34;stopsVar&#34;:[{&#34;color&#34;:{&#34;r&#34;:0.11372549086809158,&#34;g&#34;:0.22745098173618317,&#34;b&#34;:0.35294118523597717,&#34;a&#34;:0.0},&#34;position&#34;:0.0},{&#34;color&#34;:{&#34;r&#34;:0.23529411852359772,&#34;g&#34;:0.47058823704719543,&#34;b&#34;:0.67450982332229614,&#34;a&#34;:1.0},&#34;position&#34;:1.0}],&#34;transform&#34;:{&#34;m00&#34;:3.0616171896964348e-14,&#34;m01&#34;:-500.0,&#34;m02&#34;:500.0,&#34;m10&#34;:500.0,&#34;m11&#34;:3.0616171896964348e-14,&#34;m12&#34;:-3.0616171896964348e-14},&#34;opacity&#34;:1.0,&#34;blendMode&#34;:&#34;NORMAL&#34;,&#34;visible&#34;:true}" mask="url(#path-1-inside-1_2_65)"/>
<mask id="path-3-inside-2_2_65" fill="white">
<path d="M433 250C433 351.068 351.068 433 250 433C148.932 433 67 351.068 67 250C67 148.932 148.932 67 250 67C351.068 67 433 148.932 433 250Z"/>
</mask>
<g clip-path="url(#paint1_angular_2_65_clip_path)" data-figma-skip-parse="true" mask="url(#path-3-inside-2_2_65)"><g transform="matrix(0 0.183 -0.183 0 250 250)"><foreignObject x="-1098.36" y="-1098.36" width="2196.72" height="2196.72"><div xmlns="http://www.w3.org/1999/xhtml" style="background:conic-gradient(from 90deg,rgba(29, 58, 90, 0) 0deg,rgba(255, 255, 255, 1) 360deg);height:100%;width:100%;opacity:1"></div></foreignObject></g></g><path d="M433 250H415C415 341.127 341.127 415 250 415V433V451C361.009 451 451 361.009 451 250H433ZM250 433V415C158.873 415 85 341.127 85 250H67H49C49 361.009 138.991 451 250 451V433ZM67 250H85C85 158.873 158.873 85 250 85V67V49C138.991 49 49 138.991 49 250H67ZM250 67V85C341.127 85 415 158.873 415 250H433H451C451 138.991 361.009 49 250 49V67Z" data-figma-gradient-fill="{&#34;type&#34;:&#34;GRADIENT_ANGULAR&#34;,&#34;stops&#34;:[{&#34;color&#34;:{&#34;r&#34;:0.11372549086809158,&#34;g&#34;:0.22745098173618317,&#34;b&#34;:0.35294118523597717,&#34;a&#34;:0.0},&#34;position&#34;:0.0},{&#34;color&#34;:{&#34;r&#34;:1.0,&#34;g&#34;:1.0,&#34;b&#34;:1.0,&#34;a&#34;:1.0},&#34;position&#34;:1.0}],&#34;stopsVar&#34;:[{&#34;color&#34;:{&#34;r&#34;:0.11372549086809158,&#34;g&#34;:0.22745098173618317,&#34;b&#34;:0.35294118523597717,&#34;a&#34;:0.0},&#34;position&#34;:0.0},{&#34;color&#34;:{&#34;r&#34;:1.0,&#34;g&#34;:1.0,&#34;b&#34;:1.0,&#34;a&#34;:1.0},&#34;position&#34;:1.0}],&#34;transform&#34;:{&#34;m00&#34;:2.2411036581745404e-14,&#34;m01&#34;:-366.0,&#34;m02&#34;:433.0,&#34;m10&#34;:366.0,&#34;m11&#34;:2.2411036581745404e-14,&#34;m12&#34;:67.0},&#34;opacity&#34;:1.0,&#34;blendMode&#34;:&#34;NORMAL&#34;,&#34;visible&#34;:true}" mask="url(#path-3-inside-2_2_65)"/>
<defs>
<clipPath id="paint0_angular_2_65_clip_path"><path d="M500 250H350C350 305.228 305.228 350 250 350V500V650C470.914 650 650 470.914 650 250H500ZM250 500V350C194.772 350 150 305.228 150 250H0H-150C-150 470.914 29.0861 650 250 650V500ZM0 250H150C150 194.772 194.772 150 250 150V0V-150C29.0861 -150 -150 29.0861 -150 250H0ZM250 0V150C305.228 150 350 194.772 350 250H500H650C650 29.0861 470.914 -150 250 -150V0Z"/></clipPath><clipPath id="paint1_angular_2_65_clip_path"><path d="M433 250H415C415 341.127 341.127 415 250 415V433V451C361.009 451 451 361.009 451 250H433ZM250 433V415C158.873 415 85 341.127 85 250H67H49C49 361.009 138.991 451 250 451V433ZM67 250H85C85 158.873 158.873 85 250 85V67V49C138.991 49 49 138.991 49 250H67ZM250 67V85C341.127 85 415 158.873 415 250H433H451C451 138.991 361.009 49 250 49V67Z"/></clipPath></defs>
</svg>
